<?xml version="1.0" encoding="UTF-8" standalone="no"?>
<svg
   xmlns:dc="http://purl.org/dc/elements/1.1/"
   xmlns:cc="http://creativecommons.org/ns#"
   xmlns:rdf="http://www.w3.org/1999/02/22-rdf-syntax-ns#"
   xmlns:svg="http://www.w3.org/2000/svg"
   xmlns="http://www.w3.org/2000/svg"
   xmlns:sodipodi="http://sodipodi.sourceforge.net/DTD/sodipodi-0.dtd"
   xmlns:inkscape="http://www.inkscape.org/namespaces/inkscape"
   version="1.1"
   onload="init(evt)"
   onmousemove="mouse_move(evt)"
   onmouseout="mouse_out(evt)"
   height="231"
   width="550.32092"
   id="svg2"
   inkscape:version="0.48.3.1 r9886"
   sodipodi:docname="entities_detection.pdf">
  <metadata
     id="metadata583">
    <rdf:RDF>
      <cc:Work
         rdf:about="">
        <dc:format>image/svg+xml</dc:format>
        <dc:type
           rdf:resource="http://purl.org/dc/dcmitype/StillImage" />
        <dc:title></dc:title>
      </cc:Work>
    </rdf:RDF>
  </metadata>
  <sodipodi:namedview
     pagecolor="#ffffff"
     bordercolor="#666666"
     borderopacity="1"
     objecttolerance="10"
     gridtolerance="10"
     guidetolerance="10"
     inkscape:pageopacity="0"
     inkscape:pageshadow="2"
     inkscape:window-width="1920"
     inkscape:window-height="1027"
     id="namedview581"
     showgrid="false"
     fit-margin-top="10"
     fit-margin-left="10"
     fit-margin-right="10"
     fit-margin-bottom="10"
     inkscape:zoom="1.0871597"
     inkscape:cx="-51.162644"
     inkscape:cy="247.39335"
     inkscape:window-x="0"
     inkscape:window-y="0"
     inkscape:window-maximized="1"
     inkscape:current-layer="svg2" />
  <script
     type="text/ecmascript"
     id="script4">
      var doc = null;
      var root = null;
      var css = null;
      var last_target = null;
      var svgNs = &quot;http://www.w3.org/2000/svg&quot;;

      function init(event) {
         doc = event.target.ownerDocument;
         root = doc.documentElement;
         if (root.styleSheets != null &amp;&amp; root.styleSheets[0] != null) css = root.styleSheets[0]
         else if (doc.styleSheets != null &amp;&amp; doc.styleSheets[0] != null) css = doc.styleSheets[0];
	 top.zoomSVG = zoom;
         if (top.svg_loaded) top.svg_loaded(doc);
         if (top.setSVGTitle) top.setSVGTitle(get_title());
         if (top.setSVGDesc) top.setSVGDesc(get_desc());
         if (top.highlightSVGNodes) top.highlightSVGNodes(css);
      }
      function mouse_out (event) {
        hide_tooltip(event);
      }
      function mouse_move (event) {
         show_tooltip(event);
      }
      function get_title () {
        var title = root.getElementsByTagName('title').item(0);
        if (title &amp;&amp; title.parentNode == root) {
           return title.firstChild.nodeValue;
        } else {
           return '';
        }
      }
      function get_desc () {
        var desc = root.getElementsByTagName('desc').item(0);
        if (desc &amp;&amp; desc.parentNode == root) {
           var n = desc.firstChild;
           while (n &amp;&amp; n.nodeType != 1) n=n.nextSibling;
           if (!n) n=desc.firstChild;
           return n; // desc.firstChild.nodeValue;
        } else {
           return '';
        }
      }
      function zoom (amount) {
        var old_scale = root.currentScale;
        var new_scale = old_scale + amount;
        var rescale = new_scale/old_scale;
        root.currentScale = new_scale;
	root.setAttribute('width',Number(root.getAttribute('width'))*rescale);
	root.setAttribute('height',Number(root.getAttribute('height'))*rescale);
      }
      function hide_tooltip(event) {
	 if (event.target == last_target &amp;&amp; top.changeToolTip) {
	    top.changeToolTip(&quot;&quot;);
	 }
      }
      function show_tooltip(event) {
         var target = event.target;
	 if (!top.placeTip) return;
	 var x = event.clientX;
	 var y = event.clientY;
  	 top.placeTip(x,y,root,event);
         if ( last_target != target ) {
	    last_target = target;
            if (top.onSVGMouseOver) top.onSVGMouseOver(target);
            if (target==root) return;
            var desc;
            for (var i=0; i&lt;target.childNodes.length; i++) {
              var n = target.childNodes[i];
              if (n.nodeName == 'desc') {
                desc = n;
                break;
              }
            }
            if ( desc ) {
               tooltip_text = desc.firstChild.nodeValue;
	       if (tooltip_text == null) {
	         top.changeToolTip('');
	       } else {
	         top.changeToolTip(tooltip_text.split(/\n/).join(&quot;&lt;br /&gt;&quot;));
               }
            }
         }
      }

</script>
  <defs
     id="defs6">
    <style
       type="text/css"
       id="style8" />
    <clipPath
       id="mask_dense1">
      <path
         id="path13"
         d="M 0,-2703.7 1561,0 1561,1.9 0,-2701.8 z m 0,5.8 L 1561,5.8 1561,7.7 0,-2696 z m 0,5.8 1561,2703.7 0,1.9 L 0,-2690.2 z m 0,5.8 1561,2703.7 0,1.9 L 0,-2684.4 z m 0,5.8 1561,2703.7 0,1.9 L 0,-2678.6 z m 0,5.8 L 1561,29 1561,30.9 0,-2672.8 z m 0,5.8 1561,2703.7 0,1.9 L 0,-2667 z m 0,5.8 1561,2703.7 0,1.9 L 0,-2661.2 z m 0,5.8 1561,2703.7 0,1.9 L 0,-2655.4 z m 0,5.8 1561,2703.7 0,1.9 L 0,-2649.6 z m 0,5.8 L 1561,58 1561,59.9 0,-2643.8 z m 0,5.8 1561,2703.7 0,1.9 L 0,-2638 z m 0,5.8 1561,2703.7 0,1.9 L 0,-2632.2 z m 0,5.8 1561,2703.7 0,1.9 L 0,-2626.4 z m 0,5.8 1561,2703.7 0,1.9 L 0,-2620.6 z m 0,5.8 L 1561,87 1561,88.9 0,-2614.8 z m 0,5.8 1561,2703.7 0,1.9 L 0,-2609 z m 0,5.8 1561,2703.7 0,1.9 L 0,-2603.2 z m 0,5.8 1561,2703.7 0,1.9 L 0,-2597.4 z m 0,5.8 1561,2703.7 0,1.9 L 0,-2591.6 z m 0,5.8 1561,2703.7 0,1.9 L 0,-2585.8 z m 0,5.8 1561,2703.7 0,1.9 L 0,-2580 z m 0,5.8 1561,2703.7 0,1.9 L 0,-2574.2 z m 0,5.8 1561,2703.7 0,1.9 L 0,-2568.4 z m 0,5.8 1561,2703.7 0,1.9 L 0,-2562.6 z m 0,5.8 1561,2703.7 0,1.9 L 0,-2556.8 z m 0,5.8 1561,2703.7 0,1.9 L 0,-2551 z m 0,5.8 1561,2703.7 0,1.9 L 0,-2545.2 z m 0,5.8 1561,2703.7 0,1.9 L 0,-2539.4 z m 0,5.8 1561,2703.7 0,1.9 L 0,-2533.6 z m 0,5.8 1561,2703.7 0,1.9 L 0,-2527.8 z m 0,5.8 1561,2703.7 0,1.9 L 0,-2522 z m 0,5.8 1561,2703.7 0,1.9 L 0,-2516.2 z m 0,5.8 1561,2703.7 0,1.9 L 0,-2510.4 z m 0,5.8 1561,2703.7 0,1.9 L 0,-2504.6 z m 0,5.8 1561,2703.7 0,1.9 L 0,-2498.8 z m 0,5.8 1561,2703.7 0,1.9 L 0,-2493 z m 0,5.8 1561,2703.7 0,1.9 L 0,-2487.2 z m 0,5.8 1561,2703.7 0,1.9 L 0,-2481.4 z m 0,5.8 1561,2703.7 0,1.9 L 0,-2475.6 z m 0,5.8 1561,2703.7 0,1.9 L 0,-2469.8 z m 0,5.8 1561,2703.7 0,1.9 L 0,-2464 z m 0,5.8 1561,2703.7 0,1.9 L 0,-2458.2 z m 0,5.8 1561,2703.7 0,1.9 L 0,-2452.4 z m 0,5.8 1561,2703.7 0,1.9 L 0,-2446.6 z m 0,5.8 1561,2703.7 0,1.9 L 0,-2440.8 z m 0,5.8 1561,2703.7 0,1.9 L 0,-2435 z m 0,5.8 1561,2703.7 0,1.9 L 0,-2429.2 z m 0,5.8 1561,2703.7 0,1.9 L 0,-2423.4 z m 0,5.8 1561,2703.7 0,1.9 L 0,-2417.6 z m 0,5.8 1561,2703.7 0,1.9 L 0,-2411.8 z m 0,5.8 1561,2703.7 0,1.9 L 0,-2406 z m 0,5.8 1561,2703.7 0,1.9 L 0,-2400.2 z m 0,5.8 1561,2703.7 0,1.9 L 0,-2394.4 z m 0,5.8 1561,2703.7 0,1.9 L 0,-2388.6 z m 0,5.8 1561,2703.7 0,1.9 L 0,-2382.8 z m 0,5.8 1561,2703.7 0,1.9 L 0,-2377 z m 0,5.8 1561,2703.7 0,1.9 L 0,-2371.2 z m 0,5.8 1561,2703.7 0,1.9 L 0,-2365.4 z m 0,5.8 1561,2703.7 0,1.9 L 0,-2359.6 z m 0,5.8 1561,2703.7 0,1.9 L 0,-2353.8 z m 0,5.8 1561,2703.7 0,1.9 L 0,-2348 z m 0,5.8 1561,2703.7 0,1.9 L 0,-2342.2 z m 0,5.8 1561,2703.7 0,1.9 L 0,-2336.4 z m 0,5.8 1561,2703.7 0,1.9 L 0,-2330.6 z m 0,5.8 1561,2703.7 0,1.9 L 0,-2324.8 z m 0,5.8 1561,2703.7 0,1.9 L 0,-2319 z m 0,5.8 1561,2703.7 0,1.9 L 0,-2313.2 z m 0,5.8 1561,2703.7 0,1.9 L 0,-2307.4 z m 0,5.8 1561,2703.7 0,1.9 L 0,-2301.6 z m 0,5.8 1561,2703.7 0,1.9 L 0,-2295.8 z m 0,5.8 1561,2703.7 0,1.9 L 0,-2290 z m 0,5.8 1561,2703.7 0,1.9 L 0,-2284.2 z m 0,5.8 1561,2703.7 0,1.9 L 0,-2278.4 z m 0,5.8 1561,2703.7 0,1.9 L 0,-2272.6 z m 0,5.8 1561,2703.7 0,1.9 L 0,-2266.8 z m 0,5.8 1561,2703.7 0,1.9 L 0,-2261 z m 0,5.8 1561,2703.7 0,1.9 L 0,-2255.2 z m 0,5.8 1561,2703.7 0,1.9 L 0,-2249.4 z m 0,5.8 1561,2703.7 0,1.9 L 0,-2243.6 z m 0,5.8 1561,2703.7 0,1.9 L 0,-2237.8 z m 0,5.8 1561,2703.7 0,1.9 L 0,-2232 z m 0,5.8 1561,2703.7 0,1.9 L 0,-2226.2 z m 0,5.8 1561,2703.7 0,1.9 L 0,-2220.4 z m 0,5.8 1561,2703.7 0,1.9 L 0,-2214.6 z m 0,5.8 1561,2703.7 0,1.9 L 0,-2208.8 z m 0,5.8 1561,2703.7 0,1.9 L 0,-2203 z m 0,5.8 1561,2703.7 0,1.9 L 0,-2197.2 z m 0,5.8 1561,2703.7 0,1.9 L 0,-2191.4 z m 0,5.8 1561,2703.7 0,1.9 L 0,-2185.6 z m 0,5.8 1561,2703.7 0,1.9 L 0,-2179.8 z m 0,5.8 1561,2703.7 0,1.9 L 0,-2174 z m 0,5.8 1561,2703.7 0,1.9 L 0,-2168.2 z m 0,5.8 1561,2703.7 0,1.9 L 0,-2162.4 z m 0,5.8 1561,2703.7 0,1.9 L 0,-2156.6 z m 0,5.8 1561,2703.7 0,1.9 L 0,-2150.8 z m 0,5.8 1561,2703.7 0,1.9 L 0,-2145 z m 0,5.8 1561,2703.7 0,1.9 L 0,-2139.2 z m 0,5.8 1561,2703.7 0,1.9 L 0,-2133.4 z m 0,5.8 1561,2703.7 0,1.9 L 0,-2127.6 z m 0,5.8 1561,2703.7 0,1.9 L 0,-2121.8 z m 0,5.8 1561,2703.7 0,1.9 L 0,-2116 z m 0,5.8 1561,2703.7 0,1.9 L 0,-2110.2 z m 0,5.8 1561,2703.7 0,1.9 L 0,-2104.4 z m 0,5.8 1561,2703.7 0,1.9 L 0,-2098.6 z m 0,5.8 1561,2703.7 0,1.9 L 0,-2092.8 z m 0,5.8 1561,2703.7 0,1.9 L 0,-2087 z m 0,5.8 1561,2703.7 0,1.9 L 0,-2081.2 z m 0,5.8 1561,2703.7 0,1.9 L 0,-2075.4 z m 0,5.8 1561,2703.7 0,1.9 L 0,-2069.6 z m 0,5.8 1561,2703.7 0,1.9 L 0,-2063.8 z m 0,5.8 1561,2703.7 0,1.9 L 0,-2058 z m 0,5.8 1561,2703.7 0,1.9 L 0,-2052.2 z m 0,5.8 1561,2703.7 0,1.9 L 0,-2046.4 z m 0,5.8 1561,2703.7 0,1.9 L 0,-2040.6 z m 0,5.8 1561,2703.7 0,1.9 L 0,-2034.8 z m 0,5.8 1561,2703.7 0,1.9 L 0,-2029 z m 0,5.8 1561,2703.7 0,1.9 L 0,-2023.2 z m 0,5.8 1561,2703.7 0,1.9 L 0,-2017.4 z m 0,5.8 1561,2703.7 0,1.9 L 0,-2011.6 z m 0,5.8 1561,2703.7 0,1.9 L 0,-2005.8 z m 0,5.8 1561,2703.7 0,1.9 L 0,-2000 z m 0,5.8 1561,2703.7 0,1.9 L 0,-1994.2 z m 0,5.8 1561,2703.7 0,1.9 L 0,-1988.4 z m 0,5.8 1561,2703.7 0,1.9 L 0,-1982.6 z m 0,5.8 1561,2703.7 0,1.9 L 0,-1976.8 z m 0,5.8 1561,2703.7 0,1.9 L 0,-1971 z m 0,5.8 1561,2703.7 0,1.9 L 0,-1965.2 z m 0,5.8 1561,2703.7 0,1.9 L 0,-1959.4 z m 0,5.8 1561,2703.7 0,1.9 L 0,-1953.6 z m 0,5.8 1561,2703.7 0,1.9 L 0,-1947.8 z m 0,5.8 1561,2703.7 0,1.9 L 0,-1942 z m 0,5.8 1561,2703.7 0,1.9 L 0,-1936.2 z m 0,5.8 1561,2703.7 0,1.9 L 0,-1930.4 z m 0,5.8 1561,2703.7 0,1.9 L 0,-1924.6 z m 0,5.8 1561,2703.7 0,1.9 L 0,-1918.8 z m 0,5.8 1561,2703.7 0,1.9 L 0,-1913 z m 0,5.8 1561,2703.7 0,1.9 L 0,-1907.2 z m 0,5.8 1561,2703.7 0,1.9 L 0,-1901.4 z m 0,5.8 1561,2703.7 0,1.9 L 0,-1895.6 z m 0,5.8 1561,2703.7 0,1.9 L 0,-1889.8 z m 0,5.8 1561,2703.7 0,1.9 L 0,-1884 z m 0,5.8 1561,2703.7 0,1.9 L 0,-1878.2 z m 0,5.8 1561,2703.7 0,1.9 L 0,-1872.4 z m 0,5.8 1561,2703.7 0,1.9 L 0,-1866.6 z m 0,5.8 1561,2703.7 0,1.9 L 0,-1860.8 z m 0,5.8 1561,2703.7 0,1.9 L 0,-1855 z m 0,5.8 1561,2703.7 0,1.9 L 0,-1849.2 z m 0,5.8 1561,2703.7 0,1.9 L 0,-1843.4 z m 0,5.8 1561,2703.7 0,1.9 L 0,-1837.6 z m 0,5.8 1561,2703.7 0,1.9 L 0,-1831.8 z m 0,5.8 1561,2703.7 0,1.9 L 0,-1826 z m 0,5.8 1561,2703.7 0,1.9 L 0,-1820.2 z m 0,5.8 1561,2703.7 0,1.9 L 0,-1814.4 z m 0,5.8 1561,2703.7 0,1.9 L 0,-1808.6 z m 0,5.8 1561,2703.7 0,1.9 L 0,-1802.8 z m 0,5.8 1561,2703.7 0,1.9 L 0,-1797 z m 0,5.8 1561,2703.7 0,1.9 L 0,-1791.2 z m 0,5.8 1561,2703.7 0,1.9 L 0,-1785.4 z m 0,5.8 1561,2703.7 0,1.9 L 0,-1779.6 z m 0,5.8 1561,2703.7 0,1.9 L 0,-1773.8 z m 0,5.8 1561,2703.7 0,1.9 L 0,-1768 z m 0,5.8 1561,2703.7 0,1.9 L 0,-1762.2 z m 0,5.8 1561,2703.7 0,1.9 L 0,-1756.4 z m 0,5.8 1561,2703.7 0,1.9 L 0,-1750.6 z m 0,5.8 1561,2703.7 0,1.9 L 0,-1744.8 z m 0,5.8 1561,2703.7 0,1.9 L 0,-1739 z m 0,5.8 1561,2703.7 0,1.9 L 0,-1733.2 z m 0,5.8 1561,2703.7 0,1.9 L 0,-1727.4 z m 0,5.8 1561,2703.7 0,1.9 L 0,-1721.6 z m 0,5.8 1561,2703.7 0,1.9 L 0,-1715.8 z m 0,5.8 1561,2703.7 0,1.9 L 0,-1710 z m 0,5.8 1561,2703.7 0,1.9 L 0,-1704.2 z m 0,5.8 1561,2703.7 0,1.9 L 0,-1698.4 z m 0,5.8 1561,2703.7 0,1.9 L 0,-1692.6 z m 0,5.8 1561,2703.7 0,1.9 L 0,-1686.8 z m 0,5.8 1561,2703.7 0,1.9 L 0,-1681 z m 0,5.8 1561,2703.7 0,1.9 L 0,-1675.2 z m 0,5.8 1561,2703.7 0,1.9 L 0,-1669.4 z m 0,5.8 1561,2703.7 0,1.9 L 0,-1663.6 z m 0,5.8 1561,2703.7 0,1.9 L 0,-1657.8 z m 0,5.8 1561,2703.7 0,1.9 L 0,-1652 z m 0,5.8 1561,2703.7 0,1.9 L 0,-1646.2 z m 0,5.8 1561,2703.7 0,1.9 L 0,-1640.4 z m 0,5.8 1561,2703.7 0,1.9 L 0,-1634.6 z m 0,5.8 1561,2703.7 0,1.9 L 0,-1628.8 z m 0,5.8 1561,2703.7 0,1.9 L 0,-1623 z m 0,5.8 1561,2703.7 0,1.9 L 0,-1617.2 z m 0,5.8 1561,2703.7 0,1.9 L 0,-1611.4 z m 0,5.8 1561,2703.7 0,1.9 L 0,-1605.6 z m 0,5.8 1561,2703.7 0,1.9 L 0,-1599.8 z m 0,5.8 1561,2703.7 0,1.9 L 0,-1594 z m 0,5.8 1561,2703.7 0,1.9 L 0,-1588.2 z m 0,5.8 1561,2703.7 0,1.9 L 0,-1582.4 z m 0,5.8 1561,2703.7 0,1.9 L 0,-1576.6 z m 0,5.8 1561,2703.7 0,1.9 L 0,-1570.8 z m 0,5.8 1561,2703.7 0,1.9 L 0,-1565 z m 0,5.8 1561,2703.7 0,1.9 L 0,-1559.2 z m 0,5.8 1561,2703.7 0,1.9 L 0,-1553.4 z m 0,5.8 1561,2703.7 0,1.9 L 0,-1547.6 z m 0,5.8 1561,2703.7 0,1.9 L 0,-1541.8 z m 0,5.8 1561,2703.7 0,1.9 L 0,-1536 z m 0,5.8 1561,2703.7 0,1.9 L 0,-1530.2 z m 0,5.8 1561,2703.7 0,1.9 L 0,-1524.4 z m 0,5.8 1561,2703.7 0,1.9 L 0,-1518.6 z m 0,5.8 1561,2703.7 0,1.9 L 0,-1512.8 z m 0,5.8 1561,2703.7 0,1.9 L 0,-1507 z m 0,5.8 1561,2703.7 0,1.9 L 0,-1501.2 z m 0,5.8 1561,2703.7 0,1.9 L 0,-1495.4 z m 0,5.8 1561,2703.7 0,1.9 L 0,-1489.6 z m 0,5.8 1561,2703.7 0,1.9 L 0,-1483.8 z m 0,5.8 1561,2703.7 0,1.9 L 0,-1478 z m 0,5.8 1561,2703.7 0,1.9 L 0,-1472.2 z m 0,5.8 1561,2703.7 0,1.9 L 0,-1466.4 z m 0,5.8 1561,2703.7 0,1.9 L 0,-1460.6 z m 0,5.8 1561,2703.7 0,1.9 L 0,-1454.8 z m 0,5.8 1561,2703.7 0,1.9 L 0,-1449 z m 0,5.8 1561,2703.7 0,1.9 L 0,-1443.2 z m 0,5.8 1561,2703.7 0,1.9 L 0,-1437.4 z m 0,5.8 1561,2703.7 0,1.9 L 0,-1431.6 z m 0,5.8 1561,2703.7 0,1.9 L 0,-1425.8 z m 0,5.8 1561,2703.7 0,1.9 L 0,-1420 z m 0,5.8 1561,2703.7 0,1.9 L 0,-1414.2 z m 0,5.8 1561,2703.7 0,1.9 L 0,-1408.4 z m 0,5.8 1561,2703.7 0,1.9 L 0,-1402.6 z m 0,5.8 1561,2703.7 0,1.9 L 0,-1396.8 z m 0,5.8 1561,2703.7 0,1.9 L 0,-1391 z m 0,5.8 1561,2703.7 0,1.9 L 0,-1385.2 z m 0,5.8 1561,2703.7 0,1.9 L 0,-1379.4 z m 0,5.8 1561,2703.7 0,1.9 L 0,-1373.6 z m 0,5.8 1561,2703.7 0,1.9 L 0,-1367.8 z m 0,5.8 1561,2703.7 0,1.9 L 0,-1362 z m 0,5.8 1561,2703.7 0,1.9 L 0,-1356.2 z m 0,5.8 1561,2703.7 0,1.9 L 0,-1350.4 z m 0,5.8 1561,2703.7 0,1.9 L 0,-1344.6 z m 0,5.8 1561,2703.7 0,1.9 L 0,-1338.8 z m 0,5.8 1561,2703.7 0,1.9 L 0,-1333 z m 0,5.8 1561,2703.7 0,1.9 L 0,-1327.2 z m 0,5.8 1561,2703.7 0,1.9 L 0,-1321.4 z m 0,5.8 1561,2703.7 0,1.9 L 0,-1315.6 z m 0,5.8 1561,2703.7 0,1.9 L 0,-1309.8 z m 0,5.8 1561,2703.7 0,1.9 L 0,-1304 z m 0,5.8 1561,2703.7 0,1.9 L 0,-1298.2 z m 0,5.8 1561,2703.7 0,1.9 L 0,-1292.4 z m 0,5.8 1561,2703.7 0,1.9 L 0,-1286.6 z m 0,5.8 1561,2703.7 0,1.9 L 0,-1280.8 z m 0,5.8 1561,2703.7 0,1.9 L 0,-1275 z m 0,5.8 1561,2703.7 0,1.9 L 0,-1269.2 z m 0,5.8 1561,2703.7 0,1.9 L 0,-1263.4 z m 0,5.8 1561,2703.7 0,1.9 L 0,-1257.6 z m 0,5.8 1561,2703.7 0,1.9 L 0,-1251.8 z m 0,5.8 1561,2703.7 0,1.9 L 0,-1246 z m 0,5.8 1561,2703.7 0,1.9 L 0,-1240.2 z m 0,5.8 1561,2703.7 0,1.9 L 0,-1234.4 z m 0,5.8 1561,2703.7 0,1.9 L 0,-1228.6 z m 0,5.8 1561,2703.7 0,1.9 L 0,-1222.8 z m 0,5.8 1561,2703.7 0,1.9 L 0,-1217 z m 0,5.8 1561,2703.7 0,1.9 L 0,-1211.2 z m 0,5.8 1561,2703.7 0,1.9 L 0,-1205.4 z m 0,5.8 1561,2703.7 0,1.9 L 0,-1199.6 z m 0,5.8 1561,2703.7 0,1.9 L 0,-1193.8 z m 0,5.8 1561,2703.7 0,1.9 L 0,-1188 z m 0,5.8 1561,2703.7 0,1.9 L 0,-1182.2 z m 0,5.8 1561,2703.7 0,1.9 L 0,-1176.4 z m 0,5.8 1561,2703.7 0,1.9 L 0,-1170.6 z m 0,5.8 1561,2703.7 0,1.9 L 0,-1164.8 z m 0,5.8 1561,2703.7 0,1.9 L 0,-1159 z m 0,5.8 1561,2703.7 0,1.9 L 0,-1153.2 z m 0,5.8 1561,2703.7 0,1.9 L 0,-1147.4 z m 0,5.8 1561,2703.7 0,1.9 L 0,-1141.6 z m 0,5.8 1561,2703.7 0,1.9 L 0,-1135.8 z m 0,5.8 1561,2703.7 0,1.9 L 0,-1130 z m 0,5.8 1561,2703.7 0,1.9 L 0,-1124.2 z m 0,5.8 1561,2703.7 0,1.9 L 0,-1118.4 z m 0,5.8 1561,2703.7 0,1.9 L 0,-1112.6 z m 0,5.8 1561,2703.7 0,1.9 L 0,-1106.8 z m 0,5.8 1561,2703.7 0,1.9 L 0,-1101 z m 0,5.8 1561,2703.7 0,1.9 L 0,-1095.2 z m 0,5.8 1561,2703.7 0,1.9 L 0,-1089.4 z m 0,5.8 1561,2703.7 0,1.9 L 0,-1083.6 z m 0,5.8 1561,2703.7 0,1.9 L 0,-1077.8 z m 0,5.8 1561,2703.7 0,1.9 L 0,-1072 z m 0,5.8 1561,2703.7 0,1.9 L 0,-1066.2 z m 0,5.8 1561,2703.7 0,1.9 L 0,-1060.4 z m 0,5.8 1561,2703.7 0,1.9 L 0,-1054.6 z m 0,5.8 1561,2703.7 0,1.9 L 0,-1048.8 z m 0,5.8 1561,2703.7 0,1.9 L 0,-1043 z m 0,5.8 1561,2703.7 0,1.9 L 0,-1037.2 z m 0,5.8 1561,2703.7 0,1.9 L 0,-1031.4 z m 0,5.8 1561,2703.7 0,1.9 L 0,-1025.6 z m 0,5.8 1561,2703.7 0,1.9 L 0,-1019.8 z m 0,5.8 1561,2703.7 0,1.9 L 0,-1014 z m 0,5.8 1561,2703.7 0,1.9 L 0,-1008.2 z m 0,5.8 1561,2703.7 0,1.9 L 0,-1002.4 z m 0,5.8 1561,2703.7 0,1.9 L 0,-996.6 z m 0,5.8 1561,2703.7 0,1.9 L 0,-990.8 z m 0,5.8 1561,2703.7 0,1.9 L 0,-985 z m 0,5.8 1561,2703.7 0,1.9 L 0,-979.2 z m 0,5.8 1561,2703.7 0,1.9 L 0,-973.4 z m 0,5.8 1561,2703.7 0,1.9 L 0,-967.6 z m 0,5.8 1561,2703.7 0,1.9 L 0,-961.8 z m 0,5.8 1561,2703.7 0,1.9 L 0,-956 z m 0,5.8 1561,2703.7 0,1.9 L 0,-950.2 z m 0,5.8 1561,2703.7 0,1.9 L 0,-944.4 z m 0,5.8 1561,2703.7 0,1.9 L 0,-938.6 z m 0,5.8 1561,2703.7 0,1.9 L 0,-932.8 z m 0,5.8 1561,2703.7 0,1.9 L 0,-927 z m 0,5.8 1561,2703.7 0,1.9 L 0,-921.2 z m 0,5.8 1561,2703.7 0,1.9 L 0,-915.4 z m 0,5.8 1561,2703.7 0,1.9 L 0,-909.6 z m 0,5.8 1561,2703.7 0,1.9 L 0,-903.8 z m 0,5.8 1561,2703.7 0,1.9 L 0,-898 z m 0,5.8 1561,2703.7 0,1.9 L 0,-892.2 z m 0,5.8 1561,2703.7 0,1.9 L 0,-886.4 z m 0,5.8 1561,2703.7 0,1.9 L 0,-880.6 z m 0,5.8 1561,2703.7 0,1.9 L 0,-874.8 z m 0,5.8 1561,2703.7 0,1.9 L 0,-869 z m 0,5.8 1561,2703.7 0,1.9 L 0,-863.2 z m 0,5.8 1561,2703.7 0,1.9 L 0,-857.4 z m 0,5.8 1561,2703.7 0,1.9 L 0,-851.6 z m 0,5.8 1561,2703.7 0,1.9 L 0,-845.8 z m 0,5.8 1561,2703.7 0,1.9 L 0,-840 z m 0,5.8 1561,2703.7 0,1.9 L 0,-834.2 z m 0,5.8 1561,2703.7 0,1.9 L 0,-828.4 z m 0,5.8 1561,2703.7 0,1.9 L 0,-822.6 z m 0,5.8 1561,2703.7 0,1.9 L 0,-816.8 z m 0,5.8 1561,2703.7 0,1.9 L 0,-811 z m 0,5.8 1561,2703.7 0,1.9 L 0,-805.2 z m 0,5.8 1561,2703.7 0,1.9 L 0,-799.4 z m 0,5.8 1561,2703.7 0,1.9 L 0,-793.6 z m 0,5.8 1561,2703.7 0,1.9 L 0,-787.8 z m 0,5.8 1561,2703.7 0,1.9 L 0,-782 z m 0,5.8 1561,2703.7 0,1.9 L 0,-776.2 z m 0,5.8 1561,2703.7 0,1.9 L 0,-770.4 z m 0,5.8 1561,2703.7 0,1.9 L 0,-764.6 z m 0,5.8 1561,2703.7 0,1.9 L 0,-758.8 z m 0,5.8 1561,2703.7 0,1.9 L 0,-753 z m 0,5.8 1561,2703.7 0,1.9 L 0,-747.2 z m 0,5.8 1561,2703.7 0,1.9 L 0,-741.4 z m 0,5.8 1561,2703.7 0,1.9 L 0,-735.6 z m 0,5.8 1561,2703.7 0,1.9 L 0,-729.8 z m 0,5.8 1561,2703.7 0,1.9 L 0,-724 z m 0,5.8 1561,2703.7 0,1.9 L 0,-718.2 z m 0,5.8 1561,2703.7 0,1.9 L 0,-712.4 z m 0,5.8 1561,2703.7 0,1.9 L 0,-706.6 z m 0,5.8 1561,2703.7 0,1.9 L 0,-700.8 z m 0,5.8 1561,2703.7 0,1.9 L 0,-695 z m 0,5.8 1561,2703.7 0,1.9 L 0,-689.2 z m 0,5.8 1561,2703.7 0,1.9 L 0,-683.4 z m 0,5.8 1561,2703.7 0,1.9 L 0,-677.6 z m 0,5.8 1561,2703.7 0,1.9 L 0,-671.8 z m 0,5.8 1561,2703.7 0,1.9 L 0,-666 z m 0,5.8 1561,2703.7 0,1.9 L 0,-660.2 z m 0,5.8 1561,2703.7 0,1.9 L 0,-654.4 z m 0,5.8 1561,2703.7 0,1.9 L 0,-648.6 z m 0,5.8 1561,2703.7 0,1.9 L 0,-642.8 z m 0,5.8 1561,2703.7 0,1.9 L 0,-637 z m 0,5.8 1561,2703.7 0,1.9 L 0,-631.2 z m 0,5.8 1561,2703.7 0,1.9 L 0,-625.4 z m 0,5.8 1561,2703.7 0,1.9 L 0,-619.6 z m 0,5.8 1561,2703.7 0,1.9 L 0,-613.8 z m 0,5.8 1561,2703.7 0,1.9 L 0,-608 z m 0,5.8 1561,2703.7 0,1.9 L 0,-602.2 z m 0,5.8 1561,2703.7 0,1.9 L 0,-596.4 z m 0,5.8 1561,2703.7 0,1.9 L 0,-590.6 z m 0,5.8 1561,2703.7 0,1.9 L 0,-584.8 z m 0,5.8 1561,2703.7 0,1.9 L 0,-579 z m 0,5.8 1561,2703.7 0,1.9 L 0,-573.2 z m 0,5.8 1561,2703.7 0,1.9 L 0,-567.4 z m 0,5.8 1561,2703.7 0,1.9 L 0,-561.6 z m 0,5.8 1561,2703.7 0,1.9 L 0,-555.8 z m 0,5.8 1561,2703.7 0,1.9 L 0,-550 z m 0,5.8 1561,2703.7 0,1.9 L 0,-544.2 z m 0,5.8 1561,2703.7 0,1.9 L 0,-538.4 z m 0,5.8 1561,2703.7 0,1.9 L 0,-532.6 z m 0,5.8 1561,2703.7 0,1.9 L 0,-526.8 z m 0,5.8 1561,2703.7 0,1.9 L 0,-521 z m 0,5.8 1561,2703.7 0,1.9 L 0,-515.2 z m 0,5.8 1561,2703.7 0,1.9 L 0,-509.4 z m 0,5.8 1561,2703.7 0,1.9 L 0,-503.6 z m 0,5.8 1561,2703.7 0,1.9 L 0,-497.8 z m 0,5.8 1561,2703.7 0,1.9 L 0,-492 z m 0,5.8 1561,2703.7 0,1.9 L 0,-486.2 z m 0,5.8 1561,2703.7 0,1.9 L 0,-480.4 z m 0,5.8 1561,2703.7 0,1.9 L 0,-474.6 z m 0,5.8 1561,2703.7 0,1.9 L 0,-468.8 z m 0,5.8 1561,2703.7 0,1.9 L 0,-463 z m 0,5.8 1561,2703.7 0,1.9 L 0,-457.2 z m 0,5.8 1561,2703.7 0,1.9 L 0,-451.4 z m 0,5.8 1561,2703.7 0,1.9 L 0,-445.6 z m 0,5.8 1561,2703.7 0,1.9 L 0,-439.8 z m 0,5.8 1561,2703.7 0,1.9 L 0,-434 z m 0,5.8 1561,2703.7 0,1.9 L 0,-428.2 z m 0,5.8 1561,2703.7 0,1.9 L 0,-422.4 z m 0,5.8 1561,2703.7 0,1.9 L 0,-416.6 z m 0,5.8 1561,2703.7 0,1.9 L 0,-410.8 z m 0,5.8 1561,2703.7 0,1.9 L 0,-405 z m 0,5.8 1561,2703.7 0,1.9 L 0,-399.2 z m 0,5.8 1561,2703.7 0,1.9 L 0,-393.4 z m 0,5.8 1561,2703.7 0,1.9 L 0,-387.6 z m 0,5.8 1561,2703.7 0,1.9 L 0,-381.8 z m 0,5.8 1561,2703.7 0,1.9 L 0,-376 z m 0,5.8 1561,2703.7 0,1.9 L 0,-370.2 z m 0,5.8 1561,2703.7 0,1.9 L 0,-364.4 z m 0,5.8 1561,2703.7 0,1.9 L 0,-358.6 z m 0,5.8 1561,2703.7 0,1.9 L 0,-352.8 z m 0,5.8 1561,2703.7 0,1.9 L 0,-347 z m 0,5.8 1561,2703.7 0,1.9 L 0,-341.2 z m 0,5.8 1561,2703.7 0,1.9 L 0,-335.4 z m 0,5.8 1561,2703.7 0,1.9 L 0,-329.6 z m 0,5.8 1561,2703.7 0,1.9 L 0,-323.8 z m 0,5.8 1561,2703.7 0,1.9 L 0,-318 z m 0,5.8 1561,2703.7 0,1.9 L 0,-312.2 z m 0,5.8 1561,2703.7 0,1.9 L 0,-306.4 z m 0,5.8 1561,2703.7 0,1.9 L 0,-300.6 z m 0,5.8 1561,2703.7 0,1.9 L 0,-294.8 z m 0,5.8 1561,2703.7 0,1.9 L 0,-289 z m 0,5.8 1561,2703.7 0,1.9 L 0,-283.2 z m 0,5.8 1561,2703.7 0,1.9 L 0,-277.4 z m 0,5.8 1561,2703.7 0,1.9 L 0,-271.6 z m 0,5.8 1561,2703.7 0,1.9 L 0,-265.8 z m 0,5.8 1561,2703.7 0,1.9 L 0,-260 z m 0,5.8 1561,2703.7 0,1.9 L 0,-254.2 z m 0,5.8 1561,2703.7 0,1.9 L 0,-248.4 z m 0,5.8 1561,2703.7 0,1.9 L 0,-242.6 z m 0,5.8 1561,2703.7 0,1.9 L 0,-236.8 z m 0,5.8 1561,2703.7 0,1.9 L 0,-231 z m 0,5.8 1561,2703.7 0,1.9 L 0,-225.2 z m 0,5.8 1561,2703.7 0,1.9 L 0,-219.4 z m 0,5.8 1561,2703.7 0,1.9 L 0,-213.6 z m 0,5.8 1561,2703.7 0,1.9 L 0,-207.8 z m 0,5.8 1561,2703.7 0,1.9 L 0,-202 z m 0,5.8 1561,2703.7 0,1.9 L 0,-196.2 z m 0,5.8 1561,2703.7 0,1.9 L 0,-190.4 z m 0,5.8 1561,2703.7 0,1.9 L 0,-184.6 z m 0,5.8 1561,2703.7 0,1.9 L 0,-178.8 z m 0,5.8 1561,2703.7 0,1.9 L 0,-173 z m 0,5.8 1561,2703.7 0,1.9 L 0,-167.2 z m 0,5.8 1561,2703.7 0,1.9 L 0,-161.4 z m 0,5.8 1561,2703.7 0,1.9 L 0,-155.6 z m 0,5.8 1561,2703.7 0,1.9 L 0,-149.8 z m 0,5.8 1561,2703.7 0,1.9 L 0,-144 z m 0,5.8 1561,2703.7 0,1.9 L 0,-138.2 z m 0,5.8 1561,2703.7 0,1.9 L 0,-132.4 z m 0,5.8 1561,2703.7 0,1.9 L 0,-126.6 z m 0,5.8 1561,2703.7 0,1.9 L 0,-120.8 z m 0,5.8 1561,2703.7 0,1.9 L 0,-115 z m 0,5.8 1561,2703.7 0,1.9 L 0,-109.2 z m 0,5.8 1561,2703.7 0,1.9 L 0,-103.4 z m 0,5.8 1561,2703.7 0,1.9 L 0,-97.6 z m 0,5.8 1561,2703.7 0,1.9 L 0,-91.8 z m 0,5.8 1561,2703.7 0,1.9 L 0,-86 z m 0,5.8 1561,2703.7 0,1.9 L 0,-80.2 z m 0,5.8 1561,2703.7 0,1.9 L 0,-74.4 z m 0,5.8 1561,2703.7 0,1.9 L 0,-68.6 z m 0,5.8 1561,2703.7 0,1.9 L 0,-62.8 z m 0,5.8 1561,2703.7 0,1.9 L 0,-57 z m 0,5.8 1561,2703.7 0,1.9 L 0,-51.2 z m 0,5.8 1561,2703.7 0,1.9 L 0,-45.4 z m 0,5.8 1561,2703.7 0,1.9 L 0,-39.6 z m 0,5.8 1561,2703.7 0,1.9 L 0,-33.8 z m 0,5.8 1561,2703.7 0,1.9 L 0,-28 z m 0,5.8 1561,2703.7 0,1.9 L 0,-22.2 z m 0,5.8 1561,2703.7 0,1.9 L 0,-16.4 z m 0,5.8 1561,2703.7 0,1.9 L 0,-10.6 z m 0,5.8 1561,2703.7 0,1.9 L 0,-4.8 z m 0,5.8 1561,2703.7 0,1.9 L 0,1 z m 0,5.8 1561,2703.7 0,1.9 L 0,6.8 z m 0,5.8 1561,2703.7 0,1.9 L 0,12.6 z m 0,5.8 1561,2703.7 0,1.9 L 0,18.4 z m 0,5.8 1561,2703.7 0,1.9 L 0,24.2 z m 0,5.8 1561,2703.7 0,1.9 L 0,30 z m 0,5.8 1561,2703.7 0,1.9 L 0,35.8 z m 0,5.8 1561,2703.7 0,1.9 L 0,41.6 z m 0,5.8 1561,2703.7 0,1.9 L 0,47.4 z m 0,5.8 1561,2703.7 0,1.9 L 0,53.2 z m 0,5.8 1561,2703.7 0,1.9 L 0,59 z m 0,5.8 1561,2703.7 0,1.9 L 0,64.8 z m 0,5.8 1561,2703.7 0,1.9 L 0,70.6 z m 0,5.8 1561,2703.7 0,1.9 L 0,76.4 z m 0,5.8 1561,2703.7 0,1.9 L 0,82.2 z m 0,5.8 1561,2703.7 0,1.9 L 0,88 z m 0,5.8 1561,2703.7 0,1.9 L 0,93.8 z m 0,5.8 1561,2703.7 0,1.9 L 0,99.6 z m 0,5.8 1561,2703.7 0,1.9 L 0,105.4 z m 0,5.8 1561,2703.7 0,1.9 L 0,111.2 z m 0,5.8 1561,2703.7 0,1.9 L 0,117 z m 0,5.8 1561,2703.7 0,1.9 L 0,122.8 z m 0,5.8 1561,2703.7 0,1.9 L 0,128.6 z m 0,5.8 1561,2703.7 0,1.9 L 0,134.4 z m 0,5.8 1561,2703.7 0,1.9 L 0,140.2 z m 0,5.8 1561,2703.7 0,1.9 L 0,146 z m 0,5.8 1561,2703.7 0,1.9 L 0,151.8 z m 0,5.8 1561,2703.7 0,1.9 L 0,157.6 z m 0,5.8 1561,2703.7 0,1.9 L 0,163.4 z m 0,5.8 1561,2703.7 0,1.9 L 0,169.2 z m 0,5.8 1561,2703.7 0,1.9 L 0,175 z m 0,5.8 1561,2703.7 0,1.9 L 0,180.8 z m 0,5.8 1561,2703.7 0,1.9 L 0,186.6 z m 0,5.8 1561,2703.7 0,1.9 L 0,192.4 z m 0,5.8 1561,2703.7 0,1.9 L 0,198.2 z m 0,5.8 1561,2703.7 0,1.9 L 0,204 z m 0,5.8 1561,2703.7 0,1.9 L 0,209.8 z m 0,5.8 1561,2703.7 0,1.9 L 0,215.6 z m 0,5.8 1561,2703.7 0,1.9 L 0,221.4 z m 0,5.8 1561,2703.7 0,1.9 L 0,227.2 z m 0,5.8 1561,2703.7 0,1.9 L 0,233 z m 0,5.8 1561,2703.7 0,1.9 L 0,238.8 z m 0,5.8 1561,2703.7 0,1.9 L 0,244.6 z m 0,5.8 1561,2703.7 0,1.9 L 0,250.4 z m 0,5.8 1561,2703.7 0,1.9 L 0,256.2 z m 0,5.8 1561,2703.7 0,1.9 L 0,262 z m 0,5.8 1561,2703.7 0,1.9 L 0,267.8 z m 0,5.8 1561,2703.7 0,1.9 L 0,273.6 z m 0,5.8 1561,2703.7 0,1.9 L 0,279.4 z m 0,5.8 1561,2703.7 0,1.9 L 0,285.2 z m 0,5.8 1561,2703.7 0,1.9 L 0,291 z m 0,5.8 1561,2703.7 0,1.9 L 0,296.8 z m 0,5.8 1561,2703.7 0,1.9 L 0,302.6 z m 0,5.8 1561,2703.7 0,1.9 L 0,308.4 z m 0,5.8 1561,2703.7 0,1.9 L 0,314.2 z m 0,5.8 1561,2703.7 0,1.9 L 0,320 z m 0,5.8 1561,2703.7 0,1.9 L 0,325.8 z m 0,5.8 1561,2703.7 0,1.9 L 0,331.6 z m 0,5.8 1561,2703.7 0,1.9 L 0,337.4 z m 0,5.8 1561,2703.7 0,1.9 L 0,343.2 z m 0,5.8 1561,2703.7 0,1.9 L 0,349 z m 0,5.8 1561,2703.7 0,1.9 L 0,354.8 z m 0,5.8 1561,2703.7 0,1.9 L 0,360.6 z m 0,5.8 1561,2703.7 0,1.9 L 0,366.4 z m 0,5.8 1561,2703.7 0,1.9 L 0,372.2 z m 0,5.8 1561,2703.7 0,1.9 L 0,378 z m 0,5.8 1561,2703.7 0,1.9 L 0,383.8 z m 0,5.8 1561,2703.7 0,1.9 L 0,389.6 z m 0,5.8 1561,2703.7 0,1.9 L 0,395.4 z m 0,5.8 1561,2703.7 0,1.9 L 0,401.2 z m 0,5.8 1561,2703.7 0,1.9 L 0,407 z m 0,5.8 1561,2703.7 0,1.9 L 0,412.8 z m 0,5.8 1561,2703.7 0,1.9 L 0,418.6 z m 0,5.8 1561,2703.7 0,1.9 L 0,424.4 z m 0,5.8 1561,2703.7 0,1.9 L 0,430.2 z m 0,5.8 1561,2703.7 0,1.9 L 0,436 z m 0,5.8 1561,2703.7 0,1.9 L 0,441.8 z m 0,5.8 1561,2703.7 0,1.9 L 0,447.6 z m 0,5.8 1561,2703.7 0,1.9 L 0,453.4 z m 0,5.8 1561,2703.7 0,1.9 L 0,459.2 z m 0,5.8 1561,2703.7 0,1.9 L 0,465 z m 0,5.8 1561,2703.7 0,1.9 L 0,470.8 z m 0,5.8 1561,2703.7 0,1.9 L 0,476.6 z m 0,5.8 1561,2703.7 0,1.9 L 0,482.4 z m 0,5.8 1561,2703.7 0,1.9 L 0,488.2 z m 0,5.8 1561,2703.7 0,1.9 L 0,494 z m 0,5.8 1561,2703.7 0,1.9 L 0,499.8 z m 0,5.8 1561,2703.7 0,1.9 L 0,505.6 z m 0,5.8 1561,2703.7 0,1.9 L 0,511.4 z m 0,5.8 1561,2703.7 0,1.9 L 0,517.2 z m 0,5.8 1561,2703.7 0,1.9 L 0,523 z m 0,5.8 1561,2703.7 0,1.9 L 0,528.8 z m 0,5.8 1561,2703.7 0,1.9 L 0,534.6 z m 0,5.8 1561,2703.7 0,1.9 L 0,540.4 z m 0,5.8 1561,2703.7 0,1.9 L 0,546.2 z m 0,5.8 1561,2703.7 0,1.9 L 0,552 z m 0,5.8 1561,2703.7 0,1.9 L 0,557.8 z m 0,5.8 1561,2703.7 0,1.9 L 0,563.6 z m 0,5.8 1561,2703.7 0,1.9 L 0,569.4 z m 0,5.8 1561,2703.7 0,1.9 L 0,575.2 z m 0,5.8 1561,2703.7 0,1.9 L 0,581 z m 0,5.8 1561,2703.7 0,1.9 L 0,586.8 z m 0,5.8 1561,2703.7 0,1.9 L 0,592.6 z m 0,5.8 1561,2703.7 0,1.9 L 0,598.4 z m 0,5.8 1561,2703.7 0,1.9 L 0,604.2 z m 0,5.8 1561,2703.7 0,1.9 L 0,610 z m 0,5.8 1561,2703.7 0,1.9 L 0,615.8 z m 0,5.8 1561,2703.7 0,1.9 L 0,621.6 z m 0,5.8 1561,2703.7 0,1.9 L 0,627.4 z m 0,5.8 1561,2703.7 0,1.9 L 0,633.2 z m 0,5.8 1561,2703.7 0,1.9 L 0,639 z m 0,5.8 1561,2703.7 0,1.9 L 0,644.8 z m 0,5.8 1561,2703.7 0,1.9 L 0,650.6 z m 0,5.8 1561,2703.7 0,1.9 L 0,656.4 z m 0,5.8 1561,2703.7 0,1.9 L 0,662.2 z m 0,5.8 1561,2703.7 0,1.9 L 0,668 z m 0,5.8 1561,2703.7 0,1.9 L 0,673.8 z m 0,5.8 1561,2703.7 0,1.9 L 0,679.6 z m 0,5.8 1561,2703.7 0,1.9 L 0,685.4 z m 0,5.8 1561,2703.7 0,1.9 L 0,691.2 z m 0,5.8 1561,2703.7 0,1.9 L 0,697 z m 0,5.8 1561,2703.7 0,1.9 L 0,702.8 z m 0,5.8 1561,2703.7 0,1.9 L 0,708.6 z m 0,5.8 1561,2703.7 0,1.9 L 0,714.4 z m 0,5.8 1561,2703.7 0,1.9 L 0,720.2 z m 0,5.8 1561,2703.7 0,1.9 L 0,726 z m 0,5.8 1561,2703.7 0,1.9 L 0,731.8 z m 0,5.8 1561,2703.7 0,1.9 L 0,737.6 z m 0,5.8 1561,2703.7 0,1.9 L 0,743.4 z m 0,5.8 1561,2703.7 0,1.9 L 0,749.2 z m 0,5.8 1561,2703.7 0,1.9 L 0,755 z m 0,5.8 1561,2703.7 0,1.9 L 0,760.8 z m 0,5.8 1561,2703.7 0,1.9 L 0,766.6 z m 0,5.8 1561,2703.7 0,1.9 L 0,772.4 z m 0,5.8 1561,2703.7 0,1.9 L 0,778.2 z m 0,5.8 1561,2703.7 0,1.9 L 0,784 z m 0,5.8 1561,2703.7 0,1.9 L 0,789.8 z m 0,5.8 1561,2703.7 0,1.9 L 0,795.6 z m 0,5.8 1561,2703.7 0,1.9 L 0,801.4 z m 0,5.8 1561,2703.7 0,1.9 L 0,807.2 z m 0,5.8 1561,2703.7 0,1.9 L 0,813 z m 0,5.8 1561,2703.7 0,1.9 L 0,818.8 z m 0,5.8 1561,2703.7 0,1.9 L 0,824.6 z m 0,5.8 1561,2703.7 0,1.9 L 0,830.4 z m 0,5.8 1561,2703.7 0,1.9 L 0,836.2 z m 0,5.8 1561,2703.7 0,1.9 L 0,842 z m 0,5.8 1561,2703.7 0,1.9 L 0,847.8 z m 0,5.8 1561,2703.7 0,1.9 L 0,853.6 z m 0,5.8 1561,2703.7 0,1.9 L 0,859.4 z m 0,5.8 1561,2703.7 0,1.9 L 0,865.2 z m 0,5.8 1561,2703.7 0,1.9 L 0,871 z m 0,5.8 1561,2703.7 0,1.9 L 0,876.8 z m 0,5.8 1561,2703.7 0,1.9 L 0,882.6 z m 0,5.8 1561,2703.7 0,1.9 L 0,888.4 z m 0,5.8 1561,2703.7 0,1.9 L 0,894.2 z m 0,5.8 1561,2703.7 0,1.9 L 0,900 z m 0,5.8 1561,2703.7 0,1.9 L 0,905.8 z m 0,5.8 1561,2703.7 0,1.9 L 0,911.6 z m 0,5.8 1561,2703.7 0,1.9 L 0,917.4 z m 0,5.8 1561,2703.7 0,1.9 L 0,923.2 z m 0,5.8 1561,2703.7 0,1.9 L 0,929 z m 0,5.8 1561,2703.7 0,1.9 L 0,934.8 z"
         inkscape:connector-curvature="0"
         style="opacity:0.5;fill:#ffffff" />
    </clipPath>
  </defs>
  <g
     id="g4159"
     transform="translate(10,10)">
    <path
       id="i12310"
       d="M 4,93 129,4"
       class="line scale_width scale_arrow seg:0.0"
       inkscape:connector-curvature="0"
       style="fill:none;stroke:#bebebe;stroke-width:1;stroke-linecap:butt;stroke-linejoin:round;stroke-dasharray:none" />
    <path
       id="i12316"
       d="M 43,165 59,93"
       class="line scale_width scale_arrow seg:0.0"
       inkscape:connector-curvature="0"
       style="fill:none;stroke:#bebebe;stroke-width:1;stroke-linecap:butt;stroke-linejoin:round;stroke-dasharray:none" />
    <path
       id="i12324"
       d="M 59,93 129,4"
       class="line scale_width scale_arrow seg:0.0"
       inkscape:connector-curvature="0"
       style="fill:none;stroke:#bebebe;stroke-width:1;stroke-linecap:butt;stroke-linejoin:round;stroke-dasharray:none" />
    <path
       id="i12330"
       d="M 119,165 59,93"
       class="line scale_width scale_arrow seg:0.0"
       inkscape:connector-curvature="0"
       style="fill:none;stroke:#bebebe;stroke-width:1;stroke-linecap:butt;stroke-linejoin:round;stroke-dasharray:none" />
    <rect
       id="i12313"
       x="0"
       y="105"
       width="47"
       height="17"
       class="textbg seg:0.0"
       style="fill:#ffffff;fill-opacity:0.9;stroke:#ffffff;stroke-width:0;stroke-opacity:0.9;stroke-dasharray:none" />
    <rect
       id="i12315"
       x="0"
       y="122"
       width="21"
       height="17"
       class="textbg seg:0.0"
       style="fill:#ffffff;fill-opacity:0.9;stroke:#ffffff;stroke-width:0;stroke-opacity:0.9;stroke-dasharray:none" />
    <rect
       id="i12319"
       x="39"
       y="177"
       width="68"
       height="17"
       class="textbg seg:0.0"
       style="fill:#ffffff;fill-opacity:0.9;stroke:#ffffff;stroke-width:0;stroke-opacity:0.9;stroke-dasharray:none" />
    <rect
       id="i12323"
       x="39"
       y="194"
       width="45"
       height="17"
       class="textbg seg:0.0"
       style="fill:#ffffff;fill-opacity:0.9;stroke:#ffffff;stroke-width:0;stroke-opacity:0.9;stroke-dasharray:none" />
    <rect
       id="i12327"
       x="55"
       y="105"
       width="10"
       height="17"
       class="textbg seg:0.0"
       style="fill:#ffffff;fill-opacity:0.9;stroke:#ffffff;stroke-width:0;stroke-opacity:0.9;stroke-dasharray:none" />
    <rect
       id="i12329"
       x="55"
       y="122"
       width="40"
       height="17"
       class="textbg seg:0.0"
       style="fill:#ffffff;fill-opacity:0.9;stroke:#ffffff;stroke-width:0;stroke-opacity:0.9;stroke-dasharray:none" />
    <rect
       id="i12333"
       x="115"
       y="177"
       width="52"
       height="17"
       class="textbg seg:0.0"
       style="fill:#ffffff;fill-opacity:0.9;stroke:#ffffff;stroke-width:0;stroke-opacity:0.9;stroke-dasharray:none" />
    <rect
       id="i12337"
       x="115"
       y="194"
       width="45"
       height="17"
       class="textbg seg:0.0"
       style="fill:#ffffff;fill-opacity:0.9;stroke:#ffffff;stroke-width:0;stroke-opacity:0.9;stroke-dasharray:none" />
    <rect
       id="i12341"
       x="125"
       y="16"
       width="56"
       height="17"
       class="textbg seg:0.0"
       style="fill:#ffffff;fill-opacity:0.9;stroke:#ffffff;stroke-width:0;stroke-opacity:0.9;stroke-dasharray:none" />
    <rect
       id="i12345"
       x="125"
       y="33"
       width="48"
       height="17"
       class="textbg seg:0.0"
       style="fill:#ffffff;fill-opacity:0.9;stroke:#ffffff;stroke-width:0;stroke-opacity:0.9;stroke-dasharray:none" />
    <ellipse
       transform="translate(-574,-155)"
       id="i12311"
       cx="578.5"
       cy="248"
       rx="3.5"
       ry="3.5"
       class="point node seg:0.0"
       d="m 582,248 c 0,1.933 -1.567,3.5 -3.5,3.5 -1.933,0 -3.5,-1.567 -3.5,-3.5 0,-1.933 1.567,-3.5 3.5,-3.5 1.933,0 3.5,1.567 3.5,3.5 z"
       sodipodi:cx="578.5"
       sodipodi:cy="248"
       sodipodi:rx="3.5"
       sodipodi:ry="3.5"
       style="fill:#ffff00;stroke:#000000;stroke-width:1;stroke-dasharray:none">
      <desc
         id="desc284">m/lemma: drobný
m/tag: AAIS1----1A----</desc>
    </ellipse>
    <ellipse
       transform="translate(-574,-155)"
       id="i12317"
       cx="617.5"
       cy="320"
       rx="3.5"
       ry="3.5"
       class="point node seg:0.0"
       d="m 621,320 c 0,1.933 -1.567,3.5 -3.5,3.5 -1.933,0 -3.5,-1.567 -3.5,-3.5 0,-1.933 1.567,-3.5 3.5,-3.5 1.933,0 3.5,1.567 3.5,3.5 z"
       sodipodi:cx="617.5"
       sodipodi:cy="320"
       sodipodi:rx="3.5"
       sodipodi:ry="3.5"
       style="fill:#ffff00;stroke:#000000;stroke-width:1;stroke-dasharray:none">
      <desc
         id="desc287">m/lemma: hmotný
m/tag: AAIS1----1N----</desc>
    </ellipse>
    <ellipse
       transform="translate(-574,-155)"
       id="i12325"
       cx="633.5"
       cy="248"
       rx="3.5"
       ry="3.5"
       class="point node seg:0.0"
       d="m 637,248 c 0,1.933 -1.567,3.5 -3.5,3.5 -1.933,0 -3.5,-1.567 -3.5,-3.5 0,-1.933 1.567,-3.5 3.5,-3.5 1.933,0 3.5,1.567 3.5,3.5 z"
       sodipodi:cx="633.5"
       sodipodi:cy="248"
       sodipodi:rx="3.5"
       sodipodi:ry="3.5"
       style="fill:#ffff00;stroke:#000000;stroke-width:1;stroke-dasharray:none">
      <desc
         id="desc290">m/lemma: a-1
m/tag: J^-------------</desc>
    </ellipse>
    <ellipse
       transform="translate(-574,-155)"
       id="i12331"
       cx="693.5"
       cy="320"
       rx="3.5"
       ry="3.5"
       class="point node seg:0.0"
       d="m 697,320 c 0,1.933 -1.567,3.5 -3.5,3.5 -1.933,0 -3.5,-1.567 -3.5,-3.5 0,-1.933 1.567,-3.5 3.5,-3.5 1.933,0 3.5,1.567 3.5,3.5 z"
       sodipodi:cx="693.5"
       sodipodi:cy="320"
       sodipodi:rx="3.5"
       sodipodi:ry="3.5"
       style="fill:#ffff00;stroke:#000000;stroke-width:1;stroke-dasharray:none">
      <desc
         id="desc293">m/lemma: hmotný
m/tag: AAIS1----1A----</desc>
    </ellipse>
    <ellipse
       transform="translate(-574,-155)"
       id="i12339"
       cx="703.5"
       cy="159"
       rx="3.5"
       ry="3.5"
       class="point node seg:0.0"
       d="m 707,159 c 0,1.933 -1.567,3.5 -3.5,3.5 -1.933,0 -3.5,-1.567 -3.5,-3.5 0,-1.933 1.567,-3.5 3.5,-3.5 1.933,0 3.5,1.567 3.5,3.5 z"
       sodipodi:cx="703.5"
       sodipodi:cy="159"
       sodipodi:rx="3.5"
       sodipodi:ry="3.5"
       style="fill:#ffff00;stroke:#000000;stroke-width:1;stroke-dasharray:none">
      <desc
         id="desc296">m/lemma: majetek
m/tag: NNIS1-----A----</desc>
    </ellipse>
    <text
       x="1"
       y="118"
       id="i12312"
       font-weight="normal"
       font-size="13"
       font-slant="roman"
       width="0"
       class="text text_item seg:0.0"
       style="font-size:13px;font-weight:normal;text-anchor:start;fill:#000000;font-family:DejaVu Sans">current</text>
    <text
       x="1"
       y="135"
       id="i12314"
       font-weight="normal"
       font-size="13"
       font-slant="roman"
       width="0"
       class="text text_item seg:0.0"
       style="font-size:13px;font-weight:normal;text-anchor:start;fill:#00008b;font-family:DejaVu Sans">Atr</text>
    <text
       x="40"
       y="190"
       id="i12318"
       font-weight="normal"
       font-size="13"
       font-slant="roman"
       width="0"
       class="text text_item seg:0.0"
       style="font-size:13px;font-weight:normal;text-anchor:start;fill:#000000;font-family:DejaVu Sans">tangible</text>
    <text
       x="40"
       y="207"
       id="i12320"
       font-weight="normal"
       font-size="13"
       font-slant="roman"
       width="0"
       class="text text_item seg:0.0"
       style="font-size:13px;font-weight:normal;text-anchor:start;fill:#00008b;font-family:DejaVu Sans">Atr</text>
    <text
       x="66"
       y="207"
       id="i12322"
       font-weight="normal"
       font-size="13"
       font-slant="roman"
       width="0"
       class="text text_item seg:0.0"
       style="font-size:13px;font-weight:normal;text-anchor:start;fill:#0000ff;font-family:DejaVu Sans">Co</text>
    <text
       x="56"
       y="118"
       id="i12326"
       font-weight="normal"
       font-size="13"
       font-slant="roman"
       width="0"
       class="text text_item seg:0.0"
       style="font-size:13px;font-weight:normal;text-anchor:start;fill:#000000;font-family:DejaVu Sans">and</text>
    <text
       x="56"
       y="135"
       id="i12328"
       font-weight="normal"
       font-size="13"
       font-slant="roman"
       width="0"
       class="text text_item seg:0.0"
       style="font-size:13px;font-weight:normal;text-anchor:start;fill:#00008b;font-family:DejaVu Sans">Coord</text>
    <text
       x="116"
       y="190"
       id="i12332"
       font-weight="normal"
       font-size="13"
       font-slant="roman"
       width="0"
       class="text text_item seg:0.0"
       style="font-size:13px;font-weight:normal;text-anchor:start;fill:#000000;font-family:DejaVu Sans">intangible</text>
    <text
       x="116"
       y="207"
       id="i12334"
       font-weight="normal"
       font-size="13"
       font-slant="roman"
       width="0"
       class="text text_item seg:0.0"
       style="font-size:13px;font-weight:normal;text-anchor:start;fill:#00008b;font-family:DejaVu Sans">Atr</text>
    <text
       x="142"
       y="207"
       id="i12336"
       font-weight="normal"
       font-size="13"
       font-slant="roman"
       width="0"
       class="text text_item seg:0.0"
       style="font-size:13px;font-weight:normal;text-anchor:start;fill:#0000ff;font-family:DejaVu Sans">Co</text>
    <text
       x="126"
       y="46"
       id="i12342"
       font-weight="normal"
       font-size="13"
       font-slant="roman"
       width="0"
       class="text text_item seg:0.0"
       style="font-size:13px;font-weight:normal;text-anchor:start;fill:#00008b;font-family:DejaVu Sans">Obj</text>
    <text
       x="59"
       y="207"
       id="i12321"
       font-weight="normal"
       font-size="13"
       font-slant="roman"
       width="0"
       class="plaintext text_item seg:0.0"
       style="font-size:13px;font-weight:normal;text-anchor:start;fill:#00008b;font-family:DejaVu Sans">_</text>
    <text
       x="135"
       y="207"
       id="i12335"
       font-weight="normal"
       font-size="13"
       font-slant="roman"
       width="0"
       class="plaintext text_item seg:0.0"
       style="font-size:13px;font-weight:normal;text-anchor:start;fill:#00008b;font-family:DejaVu Sans">_</text>
    <text
       x="126"
       y="29"
       id="i12340"
       font-weight="normal"
       font-size="13"
       font-slant="roman"
       width="0"
       class="text text_item seg:0.0"
       style="font-size:13px;font-weight:normal;text-anchor:start;fill:#000000;font-family:DejaVu Sans">assets</text>
  </g>
  <path
     style="fill:none;stroke:#a6d052;stroke-width:3;stroke-linecap:butt;stroke-linejoin:round;stroke-dasharray:none"
     inkscape:connector-curvature="0"
     class="line scale_width scale_arrow relation seg:0.0"
     d="M 303.72446,136.07474 477.19249,73.613276"
     id="i1"
     sodipodi:nodetypes="cc">
    <desc
       id="desc13">echild</desc>
  </path>
  <g
     id="g15"
     transform="translate(294.20968,144.33482)">
    <g
       id="g17"
       transform="matrix(-0.75470958,0.65605903,-0.65605903,-0.75470958,0,0)">
      <polygon
         style="fill:#a6d052;stroke-width:0"
         class="line scale_width scale_arrow relation seg:0.0"
         points="-20,7 0,0 -20,-7 -14,0 "
         id="polygon19">
        <desc
           id="desc21">echild</desc>
      </polygon>
    </g>
  </g>
  <path
     style="fill:none;stroke:#bebebe;stroke-width:3;stroke-linecap:butt;stroke-linejoin:round;stroke-dasharray:none"
     inkscape:connector-curvature="0"
     class="line scale_width scale_arrow seg:0.0"
     d="m 385.20968,65.334823 0,0"
     id="i7" />
  <path
     style="fill:none;stroke:#a6d052;stroke-width:3;stroke-linecap:butt;stroke-linejoin:round;stroke-dasharray:none"
     inkscape:connector-curvature="0"
     class="line scale_width scale_arrow relation seg:0.0"
     d="m 429.93744,129.6875 49.0947,-56.074224"
     id="i13"
     sodipodi:nodetypes="cc">
    <desc
       id="desc25">echild</desc>
  </path>
  <g
     id="g27"
     transform="matrix(-0.00837231,0.99996495,-0.99996495,-0.00837231,425.96572,134.92831)">
    <g
       id="g29"
       transform="matrix(0.76604444,0.64278761,-0.64278761,0.76604444,0,0)">
      <polygon
         style="fill:#a6d052;stroke-width:0"
         class="line scale_width scale_arrow relation seg:0.0"
         points="-14,0 -20,7 0,0 -20,-7 "
         id="polygon31">
        <desc
           id="desc33">echild</desc>
      </polygon>
    </g>
  </g>
  <ellipse
     style="fill:#ffff00;stroke:#000000;stroke-width:1;stroke-dasharray:none"
     sodipodi:ry="7"
     sodipodi:rx="7"
     sodipodi:cy="191"
     sodipodi:cx="85"
     d="m 92,191 c 0,3.86599 -3.134007,7 -7,7 -3.865993,0 -7,-3.13401 -7,-7 0,-3.86599 3.134007,-7 7,-7 3.865993,0 7,3.13401 7,7 z"
     class="point node qnode-2 seg:0.0"
     ry="7"
     rx="7"
     cy="191"
     cx="85"
     id="i2"
     transform="translate(209.20968,-46.665177)" />
  <ellipse
     style="fill:#ffff00;stroke:#000000;stroke-width:1;stroke-dasharray:none"
     sodipodi:ry="7"
     sodipodi:rx="7"
     sodipodi:cy="112"
     sodipodi:cx="176.75"
     d="m 183.75,112 c 0,3.86599 -3.13401,7 -7,7 -3.86599,0 -7,-3.13401 -7,-7 0,-3.86599 3.13401,-7 7,-7 3.86599,0 7,3.13401 7,7 z"
     class="point node qnode-1 seg:0.0"
     ry="7"
     rx="7"
     cy="112"
     cx="176.75"
     id="i8"
     transform="translate(306.71146,-42.985865)" />
  <ellipse
     style="fill:#ffff00;stroke:#000000;stroke-width:1;stroke-dasharray:none"
     sodipodi:ry="7"
     sodipodi:rx="7"
     sodipodi:cy="191"
     sodipodi:cx="268.5"
     d="m 275.5,191 c 0,3.86599 -3.13401,7 -7,7 -3.86599,0 -7,-3.13401 -7,-7 0,-3.86599 3.13401,-7 7,-7 3.86599,0 7,3.13401 7,7 z"
     class="point node qnode-3 seg:0.0"
     ry="7"
     rx="7"
     cy="191"
     cx="268.5"
     id="i14"
     transform="translate(149.68069,-50.344489)" />
  <rect
     style="fill:#ffffff;fill-opacity:0.9;stroke:#ffffff;stroke-width:0;stroke-opacity:0.9;stroke-dasharray:none"
     class="textbg seg:0.0"
     height="17"
     width="51"
     y="156.33482"
     x="269.20969"
     id="i4" />
  <rect
     style="fill:#ffffff;fill-opacity:0.9;stroke:#ffffff;stroke-width:0;stroke-opacity:0.9;stroke-dasharray:none"
     class="textbg seg:0.0"
     height="17"
     width="51"
     y="77.334831"
     x="360.20969"
     id="i10" />
  <rect
     style="fill:#ffffff;fill-opacity:0.9;stroke:#ffffff;stroke-width:0;stroke-opacity:0.9;stroke-dasharray:none"
     class="textbg seg:0.0"
     height="30.658751"
     width="94.083054"
     y="78.158936"
     x="433.79999"
     id="i12" />
  <rect
     style="fill:#ffffff;fill-opacity:0.9;stroke:#ffffff;stroke-width:0;stroke-opacity:0.9;stroke-dasharray:none"
     class="textbg seg:0.0"
     height="17"
     width="51"
     y="156.33482"
     x="452.20969"
     id="i16" />
  <text
     style="font-size:13px;font-weight:normal;text-anchor:start;fill:#000000;font-family:DejaVu Sans"
     class="plaintext text_item seg:0.0"
     width="0"
     font-slant="roman"
     font-size="13"
     font-weight="normal"
     id="i3"
     y="165.33482"
     x="269.70969">a-node</text>
  <text
     style="font-size:13px;font-weight:normal;text-anchor:start;fill:#000000;font-family:DejaVu Sans"
     class="plaintext text_item seg:0.0"
     width="0"
     font-slant="roman"
     font-size="13"
     font-weight="normal"
     id="i5"
     y="182.33482"
     x="244.98886">lemma=<tspan
   style="font-style:italic;font-weight:bold;fill:#000080;font-family:Times New Roman;-inkscape-font-specification:Times New Roman"
   id="tspan3084">current</tspan>
</text>
  <text
     style="font-size:13px;font-weight:normal;text-anchor:start;fill:#000000;font-family:DejaVu Sans"
     class="plaintext text_item seg:0.0"
     width="0"
     font-slant="roman"
     font-size="13"
     font-weight="normal"
     id="i9"
     y="89.145599"
     x="456.53702">a-node</text>
  <text
     style="font-size:13px;font-weight:normal;text-anchor:start;fill:#000000;font-family:DejaVu Sans"
     class="plaintext text_item seg:0.0"
     width="0"
     font-slant="roman"
     font-size="13"
     font-weight="normal"
     id="i11"
     y="103.06089"
     x="439.29956">lemma=<tspan
   style="font-style:italic;font-variant:normal;font-weight:bold;font-stretch:normal;fill:#000080;font-family:Times New Roman;-inkscape-font-specification:Times New Roman"
   id="tspan3082">asset</tspan>
</text>
  <text
     style="font-size:13px;font-weight:normal;text-anchor:start;fill:#000000;font-family:DejaVu Sans"
     class="plaintext text_item seg:0.0"
     width="0"
     font-slant="roman"
     font-size="13"
     font-weight="normal"
     id="i15"
     y="165.66003"
     x="394.67218">a-node</text>
  <text
     style="font-size:13px;font-weight:normal;text-anchor:start;fill:#000000;font-family:DejaVu Sans"
     class="plaintext text_item seg:0.0"
     width="0"
     font-slant="roman"
     font-size="13"
     font-weight="normal"
     id="i17"
     y="182.34691"
     x="361.50864">lemma=<tspan
   style="font-style:italic;font-weight:bold;fill:#000080;font-family:Times New Roman;-inkscape-font-specification:Times New Roman"
   id="tspan3093">tangible</tspan>
</text>
  <rect
     style="fill:none;stroke:#999999;stroke-width:1.12055075000000004;stroke-opacity:1"
     id="rect4328"
     width="308.1424"
     height="183.63983"
     x="231.67856"
     y="37.704479" />
  <path
     style="fill:none;stroke:#000000;stroke-width:1px;stroke-linecap:butt;stroke-linejoin:miter;stroke-opacity:1"
     d="m 478.05625,58.964792 c 0,0 -190.57208,-79.025626 -327.81,-49.756876 l 5.20334,-4.5529166"
     id="path5098"
     inkscape:connector-curvature="0"
     sodipodi:nodetypes="ccc" />
  <path
     style="fill:none;stroke:#000000;stroke-width:1px;stroke-linecap:butt;stroke-linejoin:miter;stroke-opacity:1"
     d="m 289.43542,134.73833 c 0,0 -111.87167,-111.871664 -262.768336,-37.724167"
     id="path5100"
     inkscape:connector-curvature="0"
     sodipodi:nodetypes="cc" />
  <path
     style="fill:none;stroke:#000000;stroke-width:1px;stroke-linecap:butt;stroke-linejoin:miter;stroke-opacity:1"
     d="m 411.71375,131.16104 c 0,0 -148.295,-107.643957 -349.924166,39.35021"
     id="path5102"
     inkscape:connector-curvature="0"
     sodipodi:nodetypes="cc" />
  <path
     style="fill:none;stroke:#000000;stroke-width:1.04724133px;stroke-linecap:butt;stroke-linejoin:miter;stroke-opacity:1"
     d="m 149.94466,9.5567451 7.92036,1.7414049"
     id="path5104"
     inkscape:connector-curvature="0"
     sodipodi:nodetypes="cc" />
  <path
     style="fill:none;stroke:#000000;stroke-width:1px;stroke-linecap:butt;stroke-linejoin:miter;stroke-opacity:1"
     d="m 32.195625,89.859583 -5.203333,6.504167 9.105833,0.325208"
     id="path5106"
     inkscape:connector-curvature="0"
     sodipodi:nodetypes="ccc" />
  <path
     style="fill:none;stroke:#000000;stroke-width:1px;stroke-linecap:butt;stroke-linejoin:miter;stroke-opacity:1"
     d="m 66.017292,163.03146 -4.552917,7.80499 9.75625,-3.25208"
     id="path5108"
     inkscape:connector-curvature="0"
     sodipodi:nodetypes="ccc" />
</svg>
